<?xml version="1.0" encoding="UTF-8"?><svg id="Layer_1" xmlns="http://www.w3.org/2000/svg" viewBox="0 0 1280 800"><g id="heartsDark"><path d="M732.99,200.12c-13.15-11.6-32.45-2.04-30.89,15.27,2.32,25.67,43.78,30.04,37.24,64.92-.16.87-3.11,6.95-.87,6.05,21.48-14.85,58.05-45.77,41.11-74.99-7.22-12.45-23.02-17.06-34.52-7.07-2.83,2.45-3.75,5.44-6.22,7.97.3-4.31-2.73-9.4-5.84-12.15ZM485.16,219.9c-2.34-26.44-37.1-33.79-50.06-10.15-5.02,9.16-3.92,21.27.57,30.85,9.16,19.55,31.34,33.95,47.75,47.05,5.8-5.02,10.6-11.11,15.9-16.54,8.42-8.62,20.76-18.36,24.15-30.58,6.97-25.1-21.79-39.3-38.32-20.63ZM612.69,215.05c-8.49-22.35-42.35-17.58-45.57,6.07-3.77,27.65,26.51,47.25,45.89,61.09,2.26.06,11.3-7.45,13.55-9.32,8.72-7.29,27.33-24.58,31.02-34.79,7.82-21.62-8.44-45.1-31.5-35.63-6.61,2.71-9.37,7.12-13.38,12.59ZM742.3,325.85c-10.94-19.89-40.83-12.89-42.32,10.01-2.05,31.48,37.04,40.35,42.32,68.93,2.28-2.76,2.96-6.71,4.73-10.16,10.47-20.43,38.98-30.73,38.97-56.67,0-19.38-21.21-30.88-37.12-19.04-2.56,1.91-4.09,4.98-6.57,6.92ZM482.38,343.85c-1.06-23.1-36.34-36.06-50.21-16.58-20.13,28.27,35.38,41.83,44.94,60.96l8.02,13.78c2.24-7.71,7.66-15.91,13.2-21.79,9.21-9.78,24.37-17.33,28.59-30.99,8.71-28.17-27.59-32.82-41.92-9.34-.94,1.54-.72,4.35-2.63,3.95ZM607.59,327.47c-15.41-13.83-36.64.87-38.49,18.89-2.35,22.9,20.06,43.98,40.43,50.14,5.61,1.7,8.17.39,13.53-1.76,17.44-7.01,36.41-25.53,36-45.58-.54-26.62-33.55-38.17-45.35-12.23-.97-3.04-3.75-7.33-6.12-9.45Z" fill="#df006a"/><path d="M485.16,219.9c16.52-18.67,45.29-4.46,38.32,20.63-3.39,12.21-15.73,21.96-24.15,30.58-5.3,5.43-10.1,11.52-15.9,16.54-16.41-13.11-38.59-27.5-47.75-47.05-4.49-9.58-5.59-21.69-.57-30.85,12.95-23.64,47.72-16.29,50.06,10.15Z" fill="#df006a"/><path d="M612.69,215.05c4.02-5.47,6.78-9.87,13.38-12.59,23.06-9.47,39.32,14.01,31.5,35.63-3.69,10.21-22.3,27.5-31.02,34.79-2.24,1.87-11.29,9.38-13.55,9.32-19.38-13.84-49.66-33.45-45.89-61.09,3.22-23.64,37.08-28.42,45.57-6.07Z" fill="#df006a"/><path d="M607.59,327.47c2.37,2.13,5.15,6.41,6.12,9.45,11.8-25.93,44.81-14.39,45.35,12.23.41,20.05-18.56,38.57-36,45.58-5.36,2.16-7.91,3.46-13.53,1.76-20.38-6.16-42.78-27.25-40.43-50.14,1.85-18.02,23.08-32.72,38.49-18.89Z" fill="#df006a"/><path d="M742.3,325.85c2.49-1.95,4.01-5.02,6.57-6.92,15.92-11.84,37.12-.34,37.12,19.04,0,25.94-28.5,36.24-38.97,56.67-1.77,3.45-2.45,7.39-4.73,10.16-5.27-28.59-44.37-37.45-42.32-68.93,1.49-22.91,31.38-29.91,42.32-10.01Z" fill="#df006a"/><path d="M482.38,343.85c1.91.4,1.69-2.41,2.63-3.95,14.33-23.48,50.63-18.83,41.92,9.34-4.22,13.66-19.38,21.21-28.59,30.99-5.54,5.88-10.95,14.08-13.2,21.79l-8.02-13.78c-9.57-19.13-65.07-32.69-44.94-60.96,13.87-19.48,49.15-6.52,50.21,16.58Z" fill="#df006a"/><path d="M732.99,200.12c3.12,2.75,6.14,7.84,5.84,12.15,2.47-2.53,3.4-5.52,6.22-7.97,11.51-9.99,27.3-5.38,34.52,7.07,16.94,29.22-19.63,60.14-41.11,74.99-2.24.9.71-5.19.87-6.05,6.54-34.88-34.92-39.25-37.24-64.92-1.56-17.31,17.74-26.87,30.89-15.27Z" fill="#df006a"/></g><g id="heartsLight"><path d="M739.26,442.18c-13.15-11.6-32.45-2.04-30.89,15.27,2.32,25.67,43.78,30.04,37.24,64.92-.16.87-3.11,6.95-.87,6.05,21.48-14.85,58.05-45.77,41.11-74.99-7.22-12.45-23.02-17.06-34.52-7.07-2.83,2.45-3.75,5.44-6.22,7.97.3-4.31-2.73-9.4-5.84-12.15ZM491.43,461.95c-2.34-26.44-37.1-33.79-50.06-10.15-5.02,9.16-3.92,21.27.57,30.85,9.16,19.55,31.34,33.95,47.75,47.05,5.8-5.02,10.6-11.11,15.9-16.54,8.42-8.62,20.76-18.36,24.15-30.58,6.97-25.1-21.79-39.3-38.32-20.63ZM618.96,457.1c-8.49-22.35-42.35-17.58-45.57,6.07-3.77,27.65,26.51,47.25,45.89,61.09,2.26.06,11.3-7.45,13.55-9.32,8.72-7.29,27.33-24.58,31.02-34.79,7.82-21.62-8.44-45.1-31.5-35.63-6.61,2.71-9.37,7.12-13.38,12.59ZM748.57,567.9c-10.94-19.89-40.83-12.89-42.32,10.01-2.05,31.48,37.04,40.35,42.32,68.93,2.28-2.76,2.96-6.71,4.73-10.16,10.47-20.43,38.98-30.73,38.97-56.67,0-19.38-21.21-30.88-37.12-19.04-2.56,1.91-4.09,4.98-6.57,6.92ZM488.66,585.9c-1.06-23.1-36.34-36.06-50.21-16.58-20.13,28.27,35.38,41.83,44.94,60.96l8.02,13.78c2.24-7.71,7.66-15.91,13.2-21.79,9.21-9.78,24.37-17.33,28.59-30.99,8.71-28.17-27.59-32.82-41.92-9.34-.94,1.54-.72,4.35-2.63,3.95ZM613.87,569.52c-15.41-13.83-36.64.87-38.49,18.89-2.35,22.9,20.06,43.98,40.43,50.14,5.61,1.7,8.17.39,13.53-1.76,17.44-7.01,36.41-25.53,36-45.58-.54-26.62-33.55-38.17-45.35-12.23-.97-3.04-3.75-7.33-6.12-9.45Z" fill="#ffb7fc"/><path d="M491.43,461.95c16.52-18.67,45.29-4.46,38.32,20.63-3.39,12.21-15.73,21.96-24.15,30.58-5.3,5.43-10.1,11.52-15.9,16.54-16.41-13.11-38.59-27.5-47.75-47.05-4.49-9.58-5.59-21.69-.57-30.85,12.95-23.64,47.72-16.29,50.06,10.15Z" fill="#ffb7fc"/><path d="M618.96,457.1c4.02-5.47,6.78-9.87,13.38-12.59,23.06-9.47,39.32,14.01,31.5,35.63-3.69,10.21-22.3,27.5-31.02,34.79-2.24,1.87-11.29,9.38-13.55,9.32-19.38-13.84-49.66-33.45-45.89-61.09,3.22-23.64,37.08-28.42,45.57-6.07Z" fill="#ffb7fc"/><path d="M613.87,569.52c2.37,2.13,5.15,6.41,6.12,9.45,11.8-25.93,44.81-14.39,45.35,12.23.41,20.05-18.56,38.57-36,45.58-5.36,2.16-7.91,3.46-13.53,1.76-20.38-6.16-42.78-27.25-40.43-50.14,1.85-18.02,23.08-32.72,38.49-18.89Z" fill="#ffb7fc"/><path d="M748.57,567.9c2.49-1.95,4.01-5.02,6.57-6.92,15.92-11.84,37.12-.34,37.12,19.04,0,25.94-28.5,36.24-38.97,56.67-1.77,3.45-2.45,7.39-4.73,10.16-5.27-28.59-44.37-37.45-42.32-68.93,1.49-22.91,31.38-29.91,42.32-10.01Z" fill="#ffb7fc"/><path d="M488.66,585.9c1.91.4,1.69-2.41,2.63-3.95,14.33-23.48,50.63-18.83,41.92,9.34-4.22,13.66-19.38,21.21-28.59,30.99-5.54,5.88-10.95,14.08-13.2,21.79l-8.02-13.78c-9.57-19.13-65.07-32.69-44.94-60.96,13.87-19.48,49.15-6.52,50.21,16.58Z" fill="#ffb7fc"/><path d="M739.26,442.18c3.12,2.75,6.14,7.84,5.84,12.15,2.47-2.53,3.4-5.52,6.22-7.97,11.51-9.99,27.3-5.38,34.52,7.07,16.94,29.22-19.63,60.14-41.11,74.99-2.24.9.71-5.19.87-6.05,6.54-34.88-34.92-39.25-37.24-64.92-1.56-17.31,17.74-26.87,30.89-15.27Z" fill="#ffb7fc"/></g></svg>