<?xml version="1.0" encoding="UTF-8"?><svg id="Layer_1" xmlns="http://www.w3.org/2000/svg" viewBox="0 0 961.1 735.62"><circle id="_WHMS1_" cx="248.17" cy="102.04" r="12.6" fill="#ca58c1"/><polygon id="WHMS2" points="262.72 97.4 233.62 97.4 248.17 122.6 262.72 97.4" fill="#38dbe7"/><text transform="translate(180.05 23.83)" font-family="BodoniSvtyTwoOSITCTT-Book, &apos;Bodoni 72 Oldstyle&apos;" font-size="28"><tspan x="0" y="0">When Harry </tspan><tspan x="20.23" y="33.6">Met Sally</tspan></text><text transform="translate(187.28 723.78)" font-family="AmericanTypewriter, &apos;American Typewriter&apos;" font-size="24"><tspan x="0" y="0">2942 lines</tspan></text><line x1="248.17" y1="103.57" x2="248.17" y2="679.57" fill="none" stroke="#333" stroke-linecap="round" stroke-miterlimit="10" stroke-width="1.5"/><text transform="translate(639.44 26.91)" font-family="BodoniSvtyTwoOSITCTT-Book, &apos;Bodoni 72 Oldstyle&apos;" font-size="28"><tspan x="0" y="0">Sex and </tspan><tspan x="-2.59" y="33.6">The City</tspan></text><text transform="translate(623.06 726.86)" font-family="AmericanTypewriter, &apos;American Typewriter&apos;" font-size="24"><tspan x="0" y="0" letter-spacing="-.05em">4</tspan><tspan x="14.21" y="0" letter-spacing="-.07em">1</tspan><tspan x="27.89" y="0" letter-spacing="0em">50 lines</tspan></text><line x1="682.6" y1="103.86" x2="682.6" y2="679.86" fill="none" stroke="#333" stroke-linecap="round" stroke-miterlimit="10" stroke-width="1.5"/><text transform="translate(376.29 26.91)" font-family="BodoniSvtyTwoOSITCTT-Book, &apos;Bodoni 72 Oldstyle&apos;" font-size="28"><tspan x="0" y="0">10 Things I Hate </tspan><tspan x="32.03" y="33.6">About You</tspan></text><text transform="translate(404.83 726.86)" font-family="AmericanTypewriter, &apos;American Typewriter&apos;" font-size="24"><tspan x="0" y="0">2586 lines</tspan></text><line x1="465.72" y1="106.15" x2="465.72" y2="682.15" fill="none" stroke="#333" stroke-linecap="round" stroke-miterlimit="10" stroke-width="1.5"/><text transform="translate(840.28 26.91)" font-family="BodoniSvtyTwoOSITCTT-Book, &apos;Bodoni 72 Oldstyle&apos;" font-size="28"><tspan x="0" y="0">Crazy Rich </tspan><tspan x="25.45" y="33.6">Asians</tspan></text><text transform="translate(839.32 726.86)" font-family="AmericanTypewriter, &apos;American Typewriter&apos;" font-size="24"><tspan x="0" y="0">3260 lines</tspan></text><line x1="900.21" y1="103.86" x2="900.21" y2="679.86" fill="none" stroke="#333" stroke-linecap="round" stroke-miterlimit="10" stroke-width="1.5"/><text id="Female_Male" transform="translate(33.94 337.35)" font-family="AmericanTypewriter, &apos;American Typewriter&apos;" font-size="24"><tspan x="0" y="0" letter-spacing="-.02em">F</tspan><tspan x="14.45" y="0">emale</tspan><tspan x="0" y="33">Male</tspan></text><text transform="translate(9.39 298.18)" font-family="AmericanTypewriter, &apos;American Typewriter&apos;" font-size="24"><tspan x="0" y="0">Spea</tspan><tspan x="55.46" y="0" letter-spacing="-.02em">k</tspan><tspan x="69.94" y="0">er:</tspan></text><circle id="_Key_Female_" cx="11.31" cy="328.27" r="9.99" fill="#ca58c1"/><circle id="SATC1" cx="682.6" cy="130.86" r="12.6" fill="#ca58c1"/><circle id="SATC4" cx="682.6" cy="492.85" r="12.6" fill="#ca58c1"/><circle id="SATC5" cx="682.6" cy="621.98" r="12.6" fill="#ca58c1"/><circle id="CRA3" cx="900.21" cy="654.34" r="12.6" fill="#ca58c1"/><polygon id="WHMS5" points="262.72 193.71 233.62 193.71 248.17 218.91 262.72 193.71" fill="#38dbe7"/><polygon id="_Key_Male_" points="22.61 352.64 0 352.64 11.31 372.22 22.61 352.64" fill="#38dbe7"/><circle id="WHMS3" cx="248.17" cy="111.47" r="12.6" fill="#ca58c1"/><polygon id="WHMS7" points="262.72 637.27 233.62 637.27 248.17 662.47 262.72 637.27" fill="#38dbe7"/><polygon id="WHMS8" points="262.72 643.96 233.62 643.96 248.17 669.16 262.72 643.96" fill="#38dbe7"/><polygon id="WHMS9" points="262.72 662.47 233.62 662.47 248.17 687.67 262.72 662.47" fill="#38dbe7"/><polygon id="WHMS4" points="262.72 107.32 233.62 107.32 248.17 132.52 262.72 107.32" fill="#38dbe7"/><polygon id="SATC2" points="697.15 211.84 668.05 211.84 682.6 237.04 697.15 211.84" fill="#38dbe7"/><polygon id="SATC3" points="697.15 290.67 668.05 290.67 682.6 315.87 697.15 290.67" fill="#38dbe7"/><polygon id="SATC6" points="697.15 661.52 668.05 661.52 682.6 686.72 697.15 661.52" fill="#38dbe7"/><polygon id="CRA1" points="914.76 294.88 885.66 294.88 900.21 320.08 914.76 294.88" fill="#38dbe7"/><polygon id="CRA2" points="914.76 446.8 885.66 446.8 900.21 472 914.76 446.8" fill="#38dbe7"/><polygon id="CRA4" points="914.76 669.15 885.66 669.15 900.21 694.35 914.76 669.15" fill="#38dbe7"/><circle id="CRA5" cx="900.21" cy="682.26" r="12.6" fill="#ca58c1"/><circle id="WHMS6" cx="248.17" cy="209.15" r="12.6" fill="#ca58c1"/></svg>